<?xml version="1.0" encoding="UTF-8" standalone="no"?>
<!-- Generator: Adobe Illustrator 17.1.0, SVG Export Plug-In . SVG Version: 6.00 Build 0)  -->

<svg
   xmlns:dc="http://purl.org/dc/elements/1.1/"
   xmlns:cc="http://creativecommons.org/ns#"
   xmlns:rdf="http://www.w3.org/1999/02/22-rdf-syntax-ns#"
   xmlns:svg="http://www.w3.org/2000/svg"
   xmlns="http://www.w3.org/2000/svg"
   xmlns:sodipodi="http://sodipodi.sourceforge.net/DTD/sodipodi-0.dtd"
   xmlns:inkscape="http://www.inkscape.org/namespaces/inkscape"
   version="1.1"
   id="Tunisia"
   x="0px"
   y="0px"
   viewBox="0 0 484.91569 999.99998"
   enable-background="new 0 0 378.4 712.8"
   xml:space="preserve"
   inkscape:version="0.48.5 r10040"
   width="100%"
   height="100%"
   sodipodi:docname="Tunisia_adm_location_map.svg"><metadata
   id="metadata87"><rdf:RDF><cc:Work
       rdf:about=""><dc:format>image/svg+xml</dc:format><dc:type
         rdf:resource="http://purl.org/dc/dcmitype/StillImage" /></cc:Work></rdf:RDF></metadata><defs
   id="defs85" /><sodipodi:namedview
   pagecolor="#ffffff"
   bordercolor="#666666"
   borderopacity="1"
   objecttolerance="10"
   gridtolerance="10"
   guidetolerance="10"
   inkscape:pageopacity="0"
   inkscape:pageshadow="2"
   inkscape:window-width="1366"
   inkscape:window-height="716"
   id="namedview83"
   showgrid="false"
   fit-margin-top="0"
   fit-margin-left="0"
   fit-margin-right="0"
   fit-margin-bottom="0"
   inkscape:zoom="1"
   inkscape:cx="163"
   inkscape:cy="534.19997"
   inkscape:window-x="-8"
   inkscape:window-y="-8"
   inkscape:window-maximized="1"
   inkscape:current-layer="Tunisia" />

<g
   id="g3849"
   transform="matrix(1.4788524,0,0,1.4788524,-38.745933,-21.295475)"><g
     style="fill:#e70013;fill-opacity:1;stroke:none"
     id="g3">
	<polygon
   style="fill:#e70013;fill-opacity:1;stroke:none"
   id="polygon5"
   points="141.5,15.9 141,16.6 140.7,16.6 140,16.3 137.8,17 136.9,16.8 136.8,16.6 136.9,16.2 138,15.5 139.3,15.4 139.6,15.2 139.8,14.7 140.1,14.4 140.5,14.5 140.9,15 141.5,15.4 " />
	<polygon
   style="fill:#e70013;fill-opacity:1;stroke:none"
   id="polygon7"
   points="209.8,42.7 209.6,43.5 209.3,44.1 208.4,44.5 208.3,44.1 208.9,43.1 209.3,42.7 " />
	<polygon
   style="fill:#e70013;fill-opacity:1;stroke:none"
   id="polygon9"
   points="290.1,51.6 290.6,51.4 290.9,52.3 291.6,53.2 291.3,53.4 289.6,53.5 289.4,53.3 289.4,52.6 290,52.2 " />
	<polygon
   style="fill:#e70013;fill-opacity:1;stroke:none"
   id="polygon11"
   points="296,54.3 296.3,54.3 296.4,54.6 296.2,54.8 295.9,54.6 " />
	<polygon
   style="fill:#e70013;fill-opacity:1;stroke:none"
   id="polygon13"
   points="308.7,174.8 309.6,174.8 309.9,175.7 309.4,176 308.7,176.2 308.2,176.1 308,175.9 308.1,175.5 " />
	<polygon
   style="fill:#e70013;fill-opacity:1;stroke:none"
   id="polygon15"
   points="307.4,178.1 307.2,178.7 306.5,178 306.8,177.7 307.2,177.8 " />
	<polygon
   style="fill:#e70013;fill-opacity:1;stroke:none"
   id="polygon17"
   points="308.1,189.4 308.9,189.7 309.9,190.4 309.8,190.6 309.3,190.3 308.2,190 308,189.7 " />
	<path
   style="fill:#e70013;fill-opacity:1;stroke:none"
   id="path19"
   d="m 247.8,83.8 0,-1.1 -0.5,-0.1 c -1.3,0.2 -0.7,1.6 -1.2,2.1 -0.8,0.3 -1.6,-0.2 -2.3,-0.7 -0.5,0.1 -1,0.3 -1.3,0.7 -0.5,0.1 -1.2,0.1 -1.5,-0.4 -0.4,-1.1 0.1,-2.4 0.4,-3.4 0.3,-0.3 6.1,-2 6.5,-1.8 l 0.2,0.5 -0.1,0.4 c -1.1,0.9 -0.2,2 0.7,2.3 l -0.9,1.5 z"
   inkscape:connector-curvature="0" />
	<polygon
   style="fill:#e70013;fill-opacity:1;stroke:none"
   id="polygon21"
   points="141.5,15.9 141,16.6 140.7,16.6 140,16.3 137.8,17 136.9,16.8 136.8,16.6 136.9,16.2 138,15.5 139.3,15.4 139.6,15.2 139.8,14.7 140.1,14.4 140.5,14.5 140.9,15 141.5,15.4 " />
	<polygon
   style="fill:#e70013;fill-opacity:1;stroke:none"
   id="polygon23"
   points="209.8,42.7 209.6,43.5 209.3,44.1 208.4,44.5 208.3,44.1 208.9,43.1 209.3,42.7 " />
	<polygon
   style="fill:#e70013;fill-opacity:1;stroke:none"
   id="polygon25"
   points="290.1,51.6 290.6,51.4 290.9,52.3 291.6,53.2 291.3,53.4 289.6,53.5 289.4,53.3 289.4,52.6 290,52.2 " />
	<polygon
   style="fill:#e70013;fill-opacity:1;stroke:none"
   id="polygon27"
   points="296,54.3 296.3,54.3 296.4,54.6 296.2,54.8 295.9,54.6 " />
	<polygon
   style="fill:#e70013;fill-opacity:1;stroke:none"
   id="polygon29"
   points="308.7,174.8 309.6,174.8 309.9,175.7 309.4,176 308.7,176.2 308.2,176.1 308,175.9 308.1,175.5 " />
	<polygon
   style="fill:#e70013;fill-opacity:1;stroke:none"
   id="polygon31"
   points="307.4,178.1 307.2,178.7 306.5,178 306.8,177.7 307.2,177.8 " />
	<polygon
   style="fill:#e70013;fill-opacity:1;stroke:none"
   id="polygon33"
   points="308.1,189.4 308.9,189.7 309.9,190.4 309.8,190.6 309.3,190.3 308.2,190 308,189.7 " />
	<g
   style="fill:#e70013;fill-opacity:1;stroke:none"
   id="g35">
		<polygon
   style="fill:#e70013;fill-opacity:1;stroke:none"
   id="polygon37"
   points="121.6,67.3 121.8,67.7 122.8,67.7 123.4,67.5 123.8,67.2 124.1,67.3 124.7,67.8 125.2,67.6 125.7,67.9 126.2,68.8 127.6,68.5 129.5,67.8 130.9,66.8 131.8,66.4 133.4,65.4 135.8,63.6 136.5,63 138.4,61.2 140,59.7 140.8,58.9 142.2,57.3 142.4,56.6 143.5,54.9 143.5,54.8 143.1,54.8 143.1,54.5 144.3,53.9 144.9,53.6 145.4,53.1 146.3,52.5 146.9,51.7 147.5,51.5 147.8,51.1 148.9,50.4 150,50.2 151.4,49.6 151.5,49.6 152.4,49.5 154.7,49 155.1,48.7 155.5,48.4 157.2,47.6 157.7,47.1 158.2,46.3 159,45.5 159.9,43.9 160.7,43.2 161.8,42.7 162.1,42.3 162.5,42.3 163.2,44.1 163.4,44.2 164.1,44.2 165.7,44.2 166.1,43.9 167.1,43.9 168.8,43.1 169.3,43.2 171.4,43.1 172.4,42.9 172.9,42.6 175.8,41 176.3,40.7 176.6,40.1 177.5,40 178.1,39.7 178.4,39.6 179.9,39.6 181.5,40.2 182.7,40.1 184.3,39.4 188.4,36.8 189.3,36.4 189.8,36.3 190.1,36.5 191,37.3 191.7,37.4 192,37.1 193.4,36.7 194.4,36.2 196,35.2 197.7,33.6 198.4,33.6 198.9,33.3 199.2,33.2 199.4,33.6 200,33.6 200.5,33.3 201.1,33.5 202.3,33.6 203.6,33.2 204.8,32.5 205.3,32.6 205.8,32.4 206.1,33.3 206.6,33.8 207.3,34.1 208.1,34.3 209.3,34.3 210.3,33.9 211.3,33.7 212.3,33.6 213.1,33.8 214.6,33.8 215,36.5 215.4,37.2 215.3,37.9 215.6,38.3 215.6,38.7 215.6,39.4 215.6,39.5 215.2,39.7 215.2,39.7 215.1,39.8 214.8,40.1 214.7,40.2 214.7,40.2 213.9,40.1 213.5,40.3 214,40.8 212.8,41.2 212.3,41.6 211.9,41.5 211.6,41.5 211.4,41.8 210.9,42.1 210.9,42.4 210.3,42.1 209.8,42.1 208.8,42.5 208,42.4 207.7,42.4 207.7,42.7 207.8,43.4 207.7,44 207.5,44 206.9,43.6 206.9,43.5 206.4,44 206.6,44.4 206.7,44.4 206.9,44.4 207.3,44.8 207.6,45.6 208.1,45.3 208.4,45.4 208.5,45.7 208,47.2 208,47.7 208.3,48.1 209.6,48.6 209.7,48.9 210.2,49.2 210,50.3 210.1,50.9 210.4,51.2 211.5,51.5 212.6,51.7 213.5,51.7 214.1,51.9 214.8,51.9 215.2,51.8 215.9,51 216.8,50.3 217.7,50.2 218.5,49.4 219.6,47.7 220.1,46.6 220.2,45.8 220.1,44.9 219.7,44 219.3,43.7 217.3,43.7 216.3,43.6 214.7,43 214.1,43.1 213.5,43.5 212.8,43.6 211.9,43.7 211.7,43.6 211.4,43.4 211.4,43.2 212.3,42.8 212.6,42.1 212.8,42 214,41.6 214.6,41.2 215.1,40.4 215.5,40.1 216,39.5 216.7,39.7 216.9,40 217.6,40.5 218.5,40.8 220.8,41.3 221.2,41.3 223,41.5 225.4,41.5 225.6,41.5 226,41.5 227,41.3 228.3,40.4 230,40.1 230.4,39.7 230.8,39.8 231.2,40.6 232.2,41.6 232.8,42.3 234.8,42.3 237.1,43.1 239.6,44.7 241,45.2 241.5,45.6 241.9,45.8 242.4,46.2 242.3,46.8 242.6,46.9 242.7,47 243.7,47.3 245,47.5 246.6,47.5 247.9,47.4 248.1,47.7 248,48 247.5,48.2 246.6,48.2 246.3,48.4 245.5,49.1 245.2,49.5 242.6,50.9 242.3,50.9 242.3,50.6 242.5,50.4 243.1,50.3 243.4,49.9 243.4,49.2 243.3,49 242.9,48.7 237.9,49.1 237.2,49.6 236.7,50.7 236.1,51.1 236.3,51.2 237.1,52.2 237.8,52.5 239.4,52.7 239.9,51.9 240.3,52 240.5,52.3 240.2,53 240.9,53.2 241.1,53.5 241.3,53.5 241.8,52.4 241.5,51.6 241.7,51.1 242.1,51.4 242.3,52.5 242.5,52.9 243.1,53.5 244.6,54.2 244.8,54.5 244.8,55.2 244.5,55.8 243.9,55.9 243.6,55.8 243.5,55.6 243.9,55 243.8,54.8 243.2,54.6 243,54.5 242.2,54.8 240.8,55 240.5,55.4 240.6,55.6 240.9,55.6 241.4,55.3 240.6,56.6 239.8,58.8 239.8,60.2 239.4,59.7 239.1,59.8 239.6,60.6 239.4,60.8 239.5,60.9 239.8,60.8 240,61 240.4,62 240.4,62.3 240.5,63 241.6,65.3 243,67.1 246.1,69.8 247.8,71 248.1,71.1 248.7,71.4 248.8,71.4 250.7,71.8 251.1,72.1 251.4,72.6 251.2,73 251.1,73 251.4,73.9 251.7,74.5 252.2,74.7 252.5,74.8 252.6,74.9 253,75.2 254,75.9 254.2,76.4 254.1,76.7 253.2,77 252.7,77.8 252,78.4 252,79.1 250.4,81.2 250.2,81.8 249.4,82 249.7,82.4 248.8,82.8 248.5,83.1 248.4,83.6 248.4,83.7 249.3,85.3 249.2,85.5 250.5,87 251.6,88.3 252.2,88.8 252.8,89.1 254.5,90 255.1,90.2 255.3,90.3 256.6,90.6 258,90.7 258.7,90.6 259.7,90.5 260.5,90.4 262.7,89.6 263.9,88.9 264.2,89.3 263.9,89.7 264,90 264.5,89.9 264.9,89.6 264.3,88.7 264.4,88.6 268.3,87.1 269.1,86.5 269.6,85.9 270,84.4 270.8,83.1 271,81.4 271.5,80.5 271.6,79.2 271.8,78.6 272.6,78.3 272.7,78 272.6,77.1 273.9,76.8 274.7,76.1 274.9,75.5 275.3,75.4 275.9,75.9 278.9,75.1 279.8,75.5 282,75.3 282.9,75.1 284,74.8 285,74.3 285.5,74 286.4,73.3 288.1,71.7 289.6,70.2 291.1,69.9 292,68.9 292.3,68.7 292.5,68.3 293,68.4 294.5,67.4 295.2,67 296.2,65.9 296.6,65.8 297.4,64.9 298,63.5 298.9,63.7 299.2,63.4 299.3,62.4 298.7,61.7 298.9,61.4 298.9,61.1 298.6,60.9 298.9,60.4 298.9,59.9 299,59.8 299.3,59.8 299.5,60.2 300,60 300.8,59.7 301.4,59.7 302,59.4 303.1,59.4 303.9,59.7 306.5,58.8 307.3,58 308.3,57.7 308.7,57.3 308.9,56.9 308.8,56.4 309,56.1 309.5,56.5 309.8,56.5 309.8,56.9 309.8,57 310.3,57.4 310.7,57.2 310.9,57.5 310.9,58.3 311.3,58.8 312.1,59.6 312.2,60.1 312,60.3 311.4,60.3 311.1,60.6 310.8,62.4 311,63.6 311.5,64.8 312.5,66.2 313.8,68.2 315,74 315.6,74.9 316.6,75.6 316.9,76.2 316.7,76.8 316.6,77.5 315.8,79.3 315.2,79.8 314.4,79.8 312.4,80.6 311.6,81.4 311,81.6 310.8,81.9 309,83.4 308.3,84.5 307.2,85.6 305.5,87.9 303.3,91.2 301.3,95.1 299.5,96.9 297.4,101.2 297.3,101.4 296.7,102 295.6,104.5 294.7,106.2 293.2,110.5 291.4,114.3 290.8,114.8 290.5,115 289.8,115.2 289.6,115.6 288.8,115.4 288.3,115.6 287.8,115.6 286,116.3 285.2,116.3 284.7,116.7 284.5,116.7 283.7,116.6 282.6,117.3 280.8,118 279.6,118.8 278.4,119.8 277.5,119.9 277.2,120.3 276.7,120.2 276.1,120.6 275.2,120.8 273.9,120 273.6,120 272.8,119.9 272,120.4 270.8,121.3 269.4,122.8 268.1,124.9 267.5,125.8 266.7,127.5 266.3,128.7 265.3,131 264.7,132.8 263.5,139.3 263.4,141.3 263.3,142.9 263.4,144.9 264.8,152.9 265.7,153.7 266.2,154 267,154.1 267.3,154.2 267.6,154.7 267.8,155.5 267.6,156.2 267.9,156.7 267.9,157.4 268,158.4 270.3,161.9 271.6,163.3 273.9,166.7 274,167.2 274,167.7 274.3,168.3 275.2,169.2 275.9,170.8 276.1,171.2 277.8,172.6 278.2,174.2 278.7,174.7 281.2,176.6 282.8,177.5 283.5,178.1 284.1,178.4 285.6,178.4 286.4,178.3 286.7,178.2 288.5,177.4 288.9,177 289.6,177.2 290.4,176.7 290.9,177 292.3,177.1 292.6,177.7 293.2,178.1 293.3,178.4 292.2,180.4 292.2,180.9 292.5,181.6 292.4,182 292.1,181.6 291.8,181.5 291.6,181.7 291.6,182.8 291.8,183.7 292.2,184.3 292.9,184.8 294.7,185.7 295.3,185.9 295.7,185.8 296.3,186.5 297.1,186.8 297.7,187.2 299.6,187.6 302.1,188.2 303,188.7 304.3,188.7 304.8,188.9 305.2,189.6 306.2,189.9 306.7,190.4 308.9,190.7 309.9,191.3 310.1,191.8 310,192.2 309.7,193.6 309,195 308.7,196.5 308.7,197.2 308.8,198 309,199 310,201.3 310.8,202.1 311.4,202.3 312.6,202.2 312.8,202.5 312,203 311.3,203.4 311,203.8 309.5,209.3 309.9,212.1 310,212.6 309,213.7 308.9,215.2 309,217 309.2,218.3 309.3,218.6 309.9,219.6 312.7,222.8 313.4,223.6 314.8,224.9 315,225 315.3,225.4 315.8,226 317.3,227.1 317.4,227.2 318.8,227.9 318.9,228.1 318.9,228.3 318.9,228.3 318.9,228.5 318.9,228.6 318.7,228.5 318.4,228.7 317.4,228.7 316.3,228.7 315.9,228.9 314.8,230.4 315,231.2 314.5,231.7 313,234 313,234.7 312.5,235 311.8,234.9 311.2,235.2 310.7,235.2 310.2,235.5 308.3,239.2 308.1,240.3 308.1,241.3 308.6,242.1 308.6,242.2 308.4,242.6 308.2,245 307.8,245.9 307.1,247 306.7,248.1 305.3,248.9 303.7,250 302.5,250.7 301,252 300.4,252.5 300,253.5 300,255.6 300.1,256.3 300,257.1 300.2,258.5 299.8,260.3 299.1,261.3 297.6,262.7 297.2,263.3 296.8,264.3 295.6,265.4 295.3,265.8 295.3,266.4 295.6,266.8 295.6,266.9 296,267.6 295.9,268 295.6,268.2 294.4,268.3 293.1,268.7 292.6,269.1 291.9,269.8 291.3,270.6 290.6,270.8 289.7,271.7 287.6,273.1 287.8,273.5 288.5,274 288.7,274.6 288.7,275 288.5,274.7 288.1,274.5 287.8,274.5 287.9,274.8 287.7,274.8 287.4,274.9 287,274.9 286.8,275 286.7,275.1 286.4,275.5 286.4,275.6 286.2,276.1 286.1,276.5 286.1,276.5 286.1,276.9 285.9,277.4 286.1,278.2 286.1,278.9 284.7,280.8 284.3,281.7 283.9,282.3 283.4,282.3 283.4,282.3 282.7,282.3 282.5,282.3 282.3,282.4 281.9,282.4 281.1,282.4 280.6,282.2 279,282.9 278.9,283 278.5,283 277.7,283.6 277.2,284.6 276.7,285.1 276.3,285.2 276.1,286.1 275.6,287 274.2,288.3 273.9,289.2 274,291.5 273.8,292 273.2,292.4 271.1,293.5 270.7,293.5 270.8,293.2 270.4,293 269.9,293.1 268.3,293.8 268.2,293.4 266.6,293.5 265.7,294 265.7,294.1 263.4,294.9 262.8,295.1 260.7,296.7 260.3,297.6 257.9,300.6 257.5,301.1 257.5,301.2 257.5,301.2 257.3,301.5 257.1,301.8 256.4,302.6 255.5,303.2 255.1,303.3 254.4,302.5 253.9,302.5 253.5,302.8 253.3,303.6 252.9,303.4 252.6,303.8 252.8,304.1 253.1,304.1 253.4,303.9 253.7,303.6 254.1,303.3 254.3,303.4 254.4,303.5 254.3,304.4 253.9,304.8 252.6,305.4 252.1,305.6 251.6,305.4 251.4,305.2 250.3,305 249.9,304.6 249.4,304.6 249,305 248.3,305.2 248.1,305.3 248.1,306.5 247.8,307.2 247.6,307.6 247.3,307.8 246.4,308 246,308 245.4,308.1 245,308.3 243.8,309.3 243.2,309.9 242.7,310 242.4,309.4 242,309.3 241.4,309 240,311.4 239.7,311.4 239.4,311.8 238.3,311.7 236.4,312.7 235.7,312.9 234.5,313.9 234,314.6 233,316.4 232.4,317.1 231.6,318.9 231,320.5 229.6,322.5 229.2,323 229.1,323.8 228.8,325.4 228.5,325.9 227.4,325.9 227.1,326.1 227.1,326.6 227.6,327.3 227.8,328.1 227.9,328.5 228.1,330 227.9,330.8 227.8,331.1 227.8,331.8 228.1,332.4 228.3,333.4 228.3,335 228.7,336.7 228.5,337.3 228.6,338.1 229.3,339.9 229.4,341.1 229.2,341.3 228.6,341.3 228.4,341.4 227.9,341.6 226.5,341.7 226.5,341.9 226.8,342.1 229.4,341.5 229.8,342.3 230.2,342.7 230.7,343.6 231.4,346.1 232,347.1 233.9,350.2 235,351.3 235.9,353 238.6,355.9 239,356.5 240.3,358.2 240.4,358.7 240.2,359 240.3,359.2 240.5,359 240.8,359 241.1,359.5 241.6,359.6 242.1,360 243.1,361.2 243.7,361.6 244.8,362.1 245.3,362.7 245.9,363 245.9,363.1 245.6,363.9 246.5,363.6 247.3,363.8 247.6,364.1 247.7,364.8 248.5,365.7 248.3,366.1 249.1,366.1 249.7,366.6 251.4,367.9 252.4,369.1 256.5,371.7 259.4,373 259.5,373.2 259.8,373.2 260.5,373.1 261,373.3 263.4,373.8 263.9,374 264,374.1 264.3,374.2 264.4,374.7 263.5,374.8 263.4,375.3 262.9,375.8 262.6,376 261.9,375.8 261.5,376.3 261.5,376.8 261.7,376.8 261.9,376.3 262.6,376.3 263.4,375.9 263.8,375.1 264.3,375 264.6,375.2 264.7,375.8 265.1,376 265.8,375.6 267.8,374.6 269.5,374.5 271,374.2 270.9,374.6 270.8,375.7 271.1,375.9 272,376.1 272,376.4 273.1,375.8 273,375.6 272.2,375.7 271.6,375.6 271.2,375.2 271.2,375.1 271.2,374.8 271.3,374.5 271.4,374.2 271.9,373.9 273.3,373.5 274.9,372.7 275.2,372.7 277.3,372.1 278.1,371.6 278.5,371.1 280,370.1 280.4,369.9 281.2,369.5 282.1,369 283.1,368.9 283.8,369.1 284.7,369.7 285.3,370.5 285.5,371.1 285.4,371.7 284.9,374.3 284.3,375.4 284.5,376.6 284.6,377.2 284.6,377.7 284.4,378.7 284,379.4 283.7,380.6 283.4,381.1 282.5,381.6 281.8,382.2 281,382.6 280.6,383 280.5,383.7 280.5,383.8 280.5,384.5 280.7,385.1 281,385.5 281.3,386.1 281.4,386.3 281.8,386.8 281.9,387.3 281.7,388.1 281.9,388.7 282.9,389.3 284.3,389.5 285,389.8 286,390.6 286.4,390.7 287.1,390.7 287.1,390.7 288.4,390.6 289.2,390.1 289.2,390.1 291,389.1 291.5,389.1 292.4,388.5 293,388.4 293.1,388.2 294,387.5 296.1,387 296.8,386.5 297.7,386.4 299.8,385.8 300.4,385.4 301.6,383.4 301.8,382.7 301.8,381.9 301.7,381.8 301.3,381 300.8,380.4 300.6,379.8 299.7,379 299.1,379 298.9,378.7 299.1,377.9 299.7,377.3 301.2,376.7 301.7,376.4 302.1,376.2 302.4,376.2 302.4,376.2 303.8,376.7 305.2,376.7 305.5,376.3 305.1,375.8 305.2,375.4 305.5,375.4 305.9,375.8 307.2,375.8 309,377.1 310.2,377.1 311.3,378 311.9,378.8 313,379.7 313.6,380.5 314.6,381.9 315.3,383.5 315.9,385.3 316.1,389.1 315.2,390.2 314.9,391.3 314.2,393.7 314,394.3 314,394.4 314.2,395 314.8,395.9 315.1,397.4 315.8,398.7 316.2,399.8 316.2,400.6 315.9,400.9 315.7,401.8 316.1,401.6 316.2,401.6 317.2,400.8 318,400.9 319.3,402.1 319.9,403 320.3,403.9 320.4,404.2 321,404.6 322.6,405.4 323.6,405.8 324.4,406 324.9,406.4 325.9,406.7 327.1,407.5 328.9,408.3 329.8,408.9 329.9,409.2 329.7,409.5 329.2,409.5 328.4,409.1 325.1,407.5 323.3,407.1 322.6,406.7 321,406.2 319.4,405.4 318.3,405.4 317.7,405.8 317.3,405.7 316.8,406.2 316.7,407 316.4,407.5 316.4,408 316.5,408.6 317.3,409.3 318,410.5 318.6,410.7 319.3,411.4 319.5,412.1 320,413 320.1,413.9 320.1,414.3 320.8,415.6 321.3,416.1 321.9,416.1 322.4,415.8 322.9,415.9 323.8,415.9 324,415.9 325.2,416.1 328.2,416.2 330.3,416.9 330.4,417 335.3,418.2 336,418.1 336.4,418.3 337.2,418.3 337.5,418.1 337.9,417.7 338.3,417.7 339.1,418.3 339.9,418.6 341.7,418.6 342.1,418.1 342.1,417.6 342.1,417.5 342.2,417.2 340.7,416.2 340.2,415.9 339,415.3 334.8,411.8 334,411.2 332.7,410.6 332.7,410.4 333,410.4 333.7,410.6 335.4,411.7 339.2,414.8 340.3,415.5 340.4,415.6 346.6,418.8 348,419.3 349.7,419.6 350.9,419.6 351.5,419.5 351,420.7 351.1,421.4 351.1,421.5 351,422.1 350.3,424.5 349.2,426.4 348.8,427.2 348.5,428 348.5,428.2 348.3,430.1 348.2,430.5 348.1,433.8 347.9,434.5 348.5,435 348.6,436.1 347.5,437.3 347.1,439 346.5,441.4 346.5,441.6 345.3,445 345.9,446.4 346.8,449.6 346.3,451.2 346,452.5 345.8,453.1 345.3,456.7 345.3,456.7 345.3,456.8 345.5,457.8 345.5,457.9 346,459.9 346.1,461.1 345.7,464 345.3,465.9 345.4,466.9 345.4,467.1 345.8,468.2 346.9,470.9 347.8,471.8 348.7,472.2 349.6,473 350.2,473.9 350.5,474.2 351.4,475.4 352.4,476.2 353.4,477.7 354.1,479.2 351.8,483.7 351,485.2 348.6,489.9 348.4,490.4 348.2,490.5 344.9,492.9 343.6,493.9 343.2,494.3 342.1,494.7 340.1,494.9 337.5,496.8 335.4,497.9 334.5,498.2 332.9,498.5 331.3,499.2 323.2,501.8 322.4,502.1 321,502.7 318.3,503.8 317.1,504.7 314.1,505.7 313.1,506.5 312.4,506.5 311.9,506.6 310.5,507.4 309.9,508 308.7,509 307.2,509.6 305.6,509.9 304.5,510.4 302.2,512 301.9,512.2 300.3,513.2 299,514.4 297.3,515.6 296.8,515.9 294.5,517.5 294.2,518.6 294.2,519.3 293.9,520 292.9,522 289.4,527.7 287.2,528.1 285.8,528.7 285.1,529.3 284.3,529.6 283.2,529.7 282.2,529.4 281.8,529.2 281,529.2 280.2,529.1 279.4,528.9 278.7,529.1 278.1,529.8 277.1,530.2 276.9,530.7 277,532.7 276.7,533.4 276,534 275.7,534.6 275.8,535.2 276.1,535.7 277.3,537.6 277.3,538.4 276.7,539.6 276.6,540.2 275,541.8 273.4,543.1 273,543.2 272.3,544 271.8,544.9 271.6,545.1 271.2,546.6 270.7,548.7 269.9,549.8 269.5,549.9 269,550.4 268.1,551.1 268,551.1 267.7,551.2 265,552.2 264.1,552.4 262.4,552.9 260.9,552.9 260.5,552.8 257.1,551.7 256.4,551.7 255.5,551.9 254.8,552.3 254.7,552.4 253,553.5 251.4,554.5 250.6,555 248.9,556.4 248.7,556.9 248.3,557.3 248.2,557.5 247.9,558.5 245.9,561.4 245.9,561.8 245.6,562.2 244.8,563.6 243.4,565.5 243.3,566 242.8,566.7 242.4,567.2 241.7,567.9 241.6,568.5 240.6,569.6 240.3,569.7 239.2,571.2 239,571.6 239,571.8 237.8,573.3 237.7,573.4 237.5,573.5 237.2,573.9 236.7,574.6 236.5,575.2 236.5,575.3 236.5,576.6 236.5,577.4 237,578.6 237.1,578.7 237.2,579.7 237.1,581.2 237.3,582.3 237.3,582.6 237.8,584.3 238.1,584.6 239.2,587.3 241.1,592.1 241.3,592.6 241.5,593.2 242.2,595.3 242.4,595.6 242.9,597.4 243.1,597.7 243.7,599.2 244.1,600.3 244.9,601.9 245.2,603 245.5,604.1 246.5,608 247.2,609.1 248.4,611.3 248.6,612.6 248.1,614.5 247.9,615 247.6,616.1 247.6,617.8 248,619.6 248.2,619.9 248.5,621.4 248.6,623.5 248.7,623.8 248.9,624.7 249.3,626.4 249.3,626.8 250.2,628.7 250.1,629.2 249.2,630.1 249.2,630.3 249.1,630.8 249.1,630.8 249.3,631.5 248.5,633.6 248.3,635 247.8,636.5 247.4,637.2 246.8,638.4 245.3,641.4 244.7,642.5 244.3,643.5 243.6,645.1 242.6,646.8 241.9,647.4 241.5,647.7 241.1,647.9 240,648.6 239.5,649.3 237.7,652.6 234.7,656.4 234.6,656.5 234.1,657.5 233.5,658.6 231.9,660.4 231.6,661 229.9,662.5 227.5,665.5 227,666.1 226,668.9 225.4,669.8 223.6,672.7 223.2,673.1 223.1,673.2 222.4,673.6 221.6,675.4 221.2,676.4 218.8,678.1 216.5,680.5 215.9,680.7 215,680.6 212.2,680.9 211.8,681 211.4,681 210.6,681.3 209.2,681.9 208.7,682.3 207.3,682.9 204.8,683.6 204.8,683.6 202.5,685.2 201.8,685.8 201.8,685.8 199.3,686.7 197.2,687.9 194.5,689.7 192.6,690.4 191.2,690.6 190.6,688.3 190.5,687.8 190.3,687.1 187.8,675.9 187.8,675.8 186.2,668.5 185.7,667.2 177.3,630.3 175.6,623 175.4,622.6 173.8,615.9 173.9,615.5 169.7,597.9 165.9,581.7 165.8,580.4 160.8,560.2 160.2,557.7 160.2,557.2 159.4,554.2 158.9,551 158.8,550.8 157,543.9 156.3,539.9 156.1,539.5 156,539.1 155.3,527.7 155.3,527.7 151.3,520 150.7,518.7 92.9,479.9 92.7,478.5 91.1,468.3 90.7,465.6 90.7,456.7 90.7,452.8 90.3,452.1 73.9,426.3 73.9,426.3 73.7,425.9 68.7,426 56.1,418.8 49.4,419.1 43.5,412 43.4,411.8 43.8,395.6 43.8,395.5 39.9,389.8 37.3,385.9 33.9,379.7 32.3,376.8 32.5,372.4 32.3,371.2 31.3,370.1 30.8,368.9 30.4,368.3 30.3,366.8 30.7,365.2 30.7,364.7 29.2,363.3 27.6,362.3 26.9,361.7 26.8,361.5 26.8,360.5 26.9,360.1 27.4,359.3 27.7,358.2 27.8,356.9 27.6,355.7 26.2,351.5 26.4,350.7 27.4,348.1 27.5,347.9 27.4,346.5 27.1,344.8 28.2,341.7 28.2,340.9 27.4,338.3 27.9,337.2 28,337 28,336.9 28.4,336.5 29.3,335.6 30.8,335.2 32.1,333.9 33.1,332.4 33.1,331.9 33.5,328.1 33.6,327.6 34.1,326.3 35.1,324.4 41,323.4 42.3,323.3 43.5,323.2 45.7,323.1 48.2,322.9 48.7,322.6 48.7,321.6 48.8,320.6 48.6,320.2 50.4,316.6 50.4,316.4 50.9,314.5 51.3,312.6 51.8,311.3 52.3,307.8 52.2,305 52.2,304.8 53,304.6 54.8,304.4 57.9,303.8 58,303.7 58.2,303.5 60.1,301.5 61,300.9 61.9,300.5 63,300.2 63.3,300.2 64.3,300.1 66.7,297.9 67.2,297.3 67.4,297.1 69.5,296.4 69.9,296.4 70.2,295.5 70.7,294.8 71.5,294.8 72.7,295 72.8,295.1 73.2,295 73.3,295.1 73.6,294.4 73.7,294.3 74.4,293.2 76.7,292.4 77.1,291.6 77.5,291.6 78.3,289.4 78.9,289.1 79.2,289.2 79.4,289.2 81,289.1 81.2,289 81.5,288.8 81.7,288 81.5,287.3 81.7,286.7 83,285.9 84.7,285.7 85,284.8 84.5,283.5 85.6,282.5 85.6,281.6 85,280.5 84.2,279.2 84.7,277.8 86.7,275.5 88.1,274.8 89.6,275.1 89.7,274.4 89.6,274.3 89.6,274.3 88.3,272.8 87.8,272.3 87.3,271.2 87.9,270.5 87.9,270.5 87.9,270.4 87.9,270.4 87.5,269.8 87.5,269.8 87.5,269.5 87.4,268.8 87.4,268.8 87.5,267.6 87.5,267.6 87.3,266.5 87.5,266 87,264.6 86.9,263.8 86.6,263.1 86.3,262.3 86.3,261.9 86.3,261.9 86.2,261.6 86.2,261.5 85.9,261.1 85.5,260.5 87.3,255.7 88.5,254.4 89.3,253.2 89.4,252.6 89.6,252.2 89.9,251 89.9,250 89.9,249.5 90.2,247.7 90.8,246.8 91.2,245.7 92.7,241.5 93.1,240.9 94.6,240 95.9,238.7 96.8,237 96.8,237 97.6,235.9 98.2,233.9 98.4,233.2 99.1,231.9 99.3,231.5 100.2,230.1 102.5,227.6 102.5,227.1 102.3,227.1 100,227.6 98.7,227.6 97.2,227.1 96.6,226.7 95.9,226.3 94.2,225.1 91.1,223.6 90.8,223.1 90.5,223 90.4,222.5 90.1,220.1 90.1,218.2 90,216.6 90.3,213.1 90.6,211.7 92.2,207.8 93,207.4 93.2,207.3 95.5,206.2 95.3,204.9 94.6,204 94.2,203.8 93.7,202.4 93.5,199.5 93.5,199.2 93.5,198.8 93.5,198.3 93.2,196.7 92.7,193.1 93,192.2 93.1,191.6 93.4,189.7 93.1,188.4 92.8,188 92.5,187.5 91.9,187 88.9,185.2 86.2,182.1 85.3,180.5 85,179.3 85.1,178.7 85.5,177.6 85.8,176.6 86,176 86.3,174.3 86.4,172 85.9,170 85.9,170 86,169.3 86,168.7 86,168.6 86.3,168 86.4,167.9 86.4,167.9 86.4,167.9 87.1,166.2 87.8,164.4 87.8,164.2 87.9,164.2 87.9,164.1 88.6,163 88.6,163 88.7,162.9 88.6,162.9 88.6,162.8 88,161.4 88,161.2 88,160.9 88,160.6 88.1,158.3 88.4,156.9 88.5,156.4 88.3,154.6 88.7,153.7 89.8,151.6 90,151.3 90.5,149.2 92,147.8 92.3,147.9 92.7,148 92.5,147.6 91.9,146.7 91.8,146.6 91.8,144.9 91.7,144.5 91.4,144.1 90.8,143.8 89.5,142.3 89.5,142.1 89.4,141.8 89.4,141.7 89.5,141.4 90.7,140 91.3,139.3 91.7,138.2 92.2,137.5 92.4,137.2 92.6,136.9 92.7,136.7 92.7,136.5 92.6,134.3 92.2,131.8 93.5,130.5 94.4,129.9 95.5,129.5 95.8,129 95.8,128.7 95.4,128.4 94.7,127.4 94.6,127.2 94.6,125.6 95.3,124.4 95.3,124.3 96,123.7 95.9,122.9 95.2,121.2 96.8,119.7 97,119.3 97.2,119 97.3,118.9 97.4,118 95,117.8 94.5,117.6 94.4,117.4 94.2,117.3 93.3,116.6 92.5,116.5 91.1,117.1 90.1,117.3 90,117.1 89.6,117.1 89.1,116.5 88.4,116.1 88,116 87.6,116 86.1,116.4 85.5,116.4 84.4,116.1 81.3,115.7 80.6,115.5 80.7,115.3 79.9,114.6 78.9,114.4 78.1,114 77.3,112.4 77.2,112.3 77.2,112.2 76.9,111.1 77.2,110.8 78.1,110.5 78.4,110 78.9,109.6 79.9,109.8 80.2,109.8 80.9,109.7 83,109 85.5,107.5 86.9,107.4 87,107.4 87.2,107.4 88.8,106.8 88.8,106.8 89.6,106.3 90.3,105.4 90.4,105.1 93.7,102.5 95.2,102.3 95.7,102 96.3,101.3 96.6,100.8 96.7,100.5 97.1,99.9 97.9,99.7 100,99.9 100.9,99.1 101.5,97.4 101.6,96.6 101.3,96.1 101.9,95.3 102.8,95.1 103.3,93.5 103.3,93.4 103.4,92.8 103,91.5 102,89.6 102,89.5 101.9,88.8 102,88.5 101.8,88.3 101.4,88 101.1,88 100.7,88.2 99.9,88.2 99.6,88.1 99.3,87.3 99.9,86.7 102,86 102.2,85.9 102.9,85.5 103.9,85.5 105,85.4 106.3,84.8 106.7,84.7 106.7,84.7 107.1,85.2 107.3,85.2 107.9,85 109,85 109.8,85.2 109.9,85.2 111.1,85.1 112,83.7 112.6,83.4 113.2,83.4 114.3,83.4 115.2,82.6 115.5,82.4 116.6,82 118.5,81 118.8,80.4 118.8,79.8 118.6,79.3 118,78.7 117.2,78.5 115.7,78 114.9,78.1 114.7,77.9 114.7,77.8 114.8,77.1 115.1,75.6 115.3,73.8 115.4,72.4 115.7,72.1 116.6,71.8 117.1,71.9 116.5,71.2 116.2,70.4 116.1,69.7 118.9,68.4 121,67.8 121.3,67.3 " />
		<polygon
   style="fill:#e70013;fill-opacity:1;stroke:none"
   id="polygon39"
   points="331.1,265.1 331.8,265.8 333,266.4 332.5,266.5 331.9,266.5 331.5,266.1 331,266 330.9,265.6 330.7,265.2 " />
		<polygon
   style="fill:#e70013;fill-opacity:1;stroke:none"
   id="polygon41"
   points="324.5,268 324.8,268.4 324.6,268.5 323.9,268.1 323.5,267.8 323.7,267.6 324.1,267.5 " />
		<polygon
   style="fill:#e70013;fill-opacity:1;stroke:none"
   id="polygon43"
   points="329.7,270.2 330,270.1 330.1,270.5 330.8,271.1 330.7,271.2 330,270.8 329.7,270.4 " />
		<polygon
   style="fill:#e70013;fill-opacity:1;stroke:none"
   id="polygon45"
   points="333.3,271.3 333.5,271.6 333.4,271.7 332.4,271.7 331.7,271.9 331.2,272.6 331,272.7 330.8,272.1 331.1,271.7 331.8,271.3 " />
		<polygon
   style="fill:#e70013;fill-opacity:1;stroke:none"
   id="polygon47"
   points="319.6,273 320.2,273.2 320.2,271.6 319.9,271.2 320.1,271.1 320.7,271.4 320.9,272.2 321.1,272.5 322.4,273 323.6,272.9 324.2,273.3 324.4,273.1 324.3,272.8 324.1,272.5 324.7,272.2 324.5,271.6 324.6,270.6 324.2,270.1 323.9,269.7 323.7,269.5 323.7,269.2 324.5,269.3 324.6,269.1 325.8,268.1 325.6,267.6 325.6,267.1 326,266.5 325.8,266.2 325.7,265.9 326.1,265.5 326.1,265.1 326.6,265.3 327.3,265.6 327.8,266.5 328,266.8 328.1,267.1 328.3,267.4 328.5,267.3 328.7,267.1 328.7,266.6 328.2,266.3 328.3,265.9 328.7,266 329.4,266.6 330.2,266.6 331.8,267.5 331.7,267.7 331.1,267.7 330.6,267.3 330.2,267.3 329.6,267.7 329.7,268.1 329.5,268.2 329.4,268.4 329.5,268.7 329.5,269.2 329.6,269.4 329.3,269.7 328.8,269.8 328.5,269.5 328.5,270.3 328.6,270.9 329.7,271.6 330.3,272.3 330.5,273 330.5,273.6 330.4,273.9 329.3,273.9 328.8,274 328.2,274.5 327.5,275.1 326.6,275 326.5,275.6 326.3,275.8 323.1,276.9 322.1,277 320.3,277.9 320,278.3 320,278.4 319.5,278.7 318.7,278.9 317.9,279.5 317.1,279.8 316.6,280.1 316.4,280.1 316.3,280.1 316.2,279 316.9,278.1 316.9,277.5 317.2,276.9 317.8,276.7 318.3,276.2 318.8,275.2 319.7,274.3 319.8,274.2 319.7,274.1 319.7,274 319.6,273.8 319.5,273.4 319.5,273.3 " />
		<polygon
   style="fill:#e70013;fill-opacity:1;stroke:none"
   id="polygon49"
   points="304.2,281.5 303.9,281.4 304.9,280.2 305.1,280 305.7,279.8 309.6,279.6 310.2,279.9 310.9,279.6 312,279.6 313.4,279.6 313.8,279.8 315.1,279.9 315.8,280.1 315.7,280.6 315.7,280.8 315.6,280.9 314.6,281.1 312.7,282.5 310.9,284.2 310.5,284.2 310.2,284.4 310.1,284.9 309.9,285 309,283.8 308.5,283.5 307.7,283.4 307.3,283.4 306.5,283 305.5,282.1 " />
		<polygon
   style="fill:#e70013;fill-opacity:1;stroke:none"
   id="polygon51"
   points="287.7,370.8 288.1,370.9 288.3,371.5 288,371.6 " />
		<polygon
   style="fill:#e70013;fill-opacity:1;stroke:none"
   id="polygon53"
   points="296.8,376.1 296.4,375.8 295.6,373.7 295.6,373.1 296.2,372.3 296.4,371.7 296.1,371.1 295.6,370.3 292.6,366.7 292.1,366.5 291.3,366.4 290.9,366.6 290.1,367.2 289.7,367.4 289.2,367.7 288.9,368.7 288.9,369.7 287.8,369.3 287.4,369.7 286.9,369.7 286.4,369.3 285.7,368.1 285.2,367.8 284.8,366.3 284.2,365.2 284.4,364.5 284.4,363.6 284.4,363.4 284.8,362.8 285.5,361.8 285.6,361 285.5,358.1 285.6,357.5 285.4,355.8 285.5,355.1 285.7,354.6 285.4,353 285.6,352.6 286.1,352.4 286.7,352.1 288.5,351.8 289.3,351.4 291.3,351.6 292.5,352 295.2,353.1 296.4,353.4 299.1,353.4 300.5,353.9 300.7,353.2 300.6,352.5 300.5,352.1 301.1,352.1 301.3,352.2 301.9,352.7 303.5,354.7 304.5,355.5 307.8,357.8 309.9,357.9 310.6,357.9 311.2,358.2 311.4,358.7 311,359.6 311.2,359.9 311.7,360.9 311.4,361.3 311.2,361.2 310.7,360.7 310.5,360.9 310.7,361.3 311.2,361.6 311.4,361.8 311.4,362.5 311.2,362.7 310.4,362.6 309.2,363.2 308.2,364.3 308,364.6 305.7,365.5 305.7,365.5 305.5,365.6 304.9,366.2 304.4,367.3 304,369 304,371 303.6,371.4 303.5,370.9 303.3,370.1 303.5,368.5 303.2,367.8 302.9,367.4 302.4,367.7 301.9,368.3 301,370.4 300.4,370.6 300.4,370.6 299.4,371.5 299.4,371.5 298.3,372 297.5,372.7 297.3,373.2 " />
		<polygon
   style="fill:#e70013;fill-opacity:1;stroke:none"
   id="polygon55"
   points="295.8,379 295.7,379.4 295.3,379.7 295.2,378.9 295.4,378.7 295.7,378.7 " />
		<polygon
   style="fill:#e70013;fill-opacity:1;stroke:none"
   id="polygon57"
   points="290.1,388.6 290.2,388.1 290.1,387.5 289.9,387.3 290,387.1 290.4,387.1 290.7,387.7 290.8,388.1 290.4,388.7 " />
		<polygon
   style="fill:#e70013;fill-opacity:1;stroke:none"
   id="polygon59"
   points="317.3,399.3 316.9,399.8 315.6,397.7 315.7,397.3 317.2,398.9 " />
		<polygon
   style="fill:#e70013;fill-opacity:1;stroke:none"
   id="polygon61"
   points="331.1,265.1 331.8,265.8 333,266.4 332.5,266.5 331.9,266.5 331.5,266.1 331,266 330.9,265.6 330.7,265.2 " />
		<polygon
   style="fill:#e70013;fill-opacity:1;stroke:none"
   id="polygon63"
   points="324.5,268 324.8,268.4 324.6,268.5 323.9,268.1 323.5,267.8 323.7,267.6 324.1,267.5 " />
		<polygon
   style="fill:#e70013;fill-opacity:1;stroke:none"
   id="polygon65"
   points="329.7,270.2 330,270.1 330.1,270.5 330.8,271.1 330.7,271.2 330,270.8 329.7,270.4 " />
		<polygon
   style="fill:#e70013;fill-opacity:1;stroke:none"
   id="polygon67"
   points="333.3,271.3 333.5,271.6 333.4,271.7 332.4,271.7 331.7,271.9 331.2,272.6 331,272.7 330.8,272.1 331.1,271.7 331.8,271.3 " />
		<polygon
   style="fill:#e70013;fill-opacity:1;stroke:none"
   id="polygon69"
   points="319.6,273 320.2,273.2 320.2,271.6 319.9,271.2 320.1,271.1 320.7,271.4 320.9,272.2 321.1,272.5 322.4,273 323.6,272.9 324.2,273.3 324.4,273.1 324.3,272.8 324.1,272.5 324.7,272.2 324.5,271.6 324.6,270.6 324.2,270.1 323.9,269.7 323.7,269.5 323.7,269.2 324.5,269.3 324.6,269.1 325.8,268.1 325.6,267.6 325.6,267.1 326,266.5 325.8,266.2 325.7,265.9 326.1,265.5 326.1,265.1 326.6,265.3 327.3,265.6 327.8,266.5 328,266.8 328.1,267.1 328.3,267.4 328.5,267.3 328.7,267.1 328.7,266.6 328.2,266.3 328.3,265.9 328.7,266 329.4,266.6 330.2,266.6 331.8,267.5 331.7,267.7 331.1,267.7 330.6,267.3 330.2,267.3 329.6,267.7 329.7,268.1 329.5,268.2 329.4,268.4 329.5,268.7 329.5,269.2 329.6,269.4 329.3,269.7 328.8,269.8 328.5,269.5 328.5,270.3 328.6,270.9 329.7,271.6 330.3,272.3 330.5,273 330.5,273.6 330.4,273.9 329.3,273.9 328.8,274 328.2,274.5 327.5,275.1 326.6,275 326.5,275.6 326.3,275.8 323.1,276.9 322.1,277 320.3,277.9 320,278.3 320,278.4 319.5,278.7 318.7,278.9 317.9,279.5 317.1,279.8 316.6,280.1 316.4,280.1 316.3,280.1 316.2,279 316.9,278.1 316.9,277.5 317.2,276.9 317.8,276.7 318.3,276.2 318.8,275.2 319.7,274.3 319.8,274.2 319.7,274.1 319.7,274 319.6,273.8 319.5,273.4 319.5,273.3 " />
		<polygon
   style="fill:#e70013;fill-opacity:1;stroke:none"
   id="polygon71"
   points="304.2,281.5 303.9,281.4 304.9,280.2 305.1,280 305.7,279.8 309.6,279.6 310.2,279.9 310.9,279.6 312,279.6 313.4,279.6 313.8,279.8 315.1,279.9 315.8,280.1 315.7,280.6 315.7,280.8 315.6,280.9 314.6,281.1 312.7,282.5 310.9,284.2 310.5,284.2 310.2,284.4 310.1,284.9 309.9,285 309,283.8 308.5,283.5 307.7,283.4 307.3,283.4 306.5,283 305.5,282.1 " />
		<polygon
   style="fill:#e70013;fill-opacity:1;stroke:none"
   id="polygon73"
   points="287.7,370.8 288.1,370.9 288.3,371.5 288,371.6 " />
		<polygon
   style="fill:#e70013;fill-opacity:1;stroke:none"
   id="polygon75"
   points="296.8,376.1 296.4,375.8 295.6,373.7 295.6,373.1 296.2,372.3 296.4,371.7 296.1,371.1 295.6,370.3 292.6,366.7 292.1,366.5 291.3,366.4 290.9,366.6 290.1,367.2 289.7,367.4 289.2,367.7 288.9,368.7 288.9,369.7 287.8,369.3 287.4,369.7 286.9,369.7 286.4,369.3 285.7,368.1 285.2,367.8 284.8,366.3 284.2,365.2 284.4,364.5 284.4,363.6 284.4,363.4 284.8,362.8 285.5,361.8 285.6,361 285.5,358.1 285.6,357.5 285.4,355.8 285.5,355.1 285.7,354.6 285.4,353 285.6,352.6 286.1,352.4 286.7,352.1 288.5,351.8 289.3,351.4 291.3,351.6 292.5,352 295.2,353.1 296.4,353.4 299.1,353.4 300.5,353.9 300.7,353.2 300.6,352.5 300.5,352.1 301.1,352.1 301.3,352.2 301.9,352.7 303.5,354.7 304.5,355.5 307.8,357.8 309.9,357.9 310.6,357.9 311.2,358.2 311.4,358.7 311,359.6 311.2,359.9 311.7,360.9 311.4,361.3 311.2,361.2 310.7,360.7 310.5,360.9 310.7,361.3 311.2,361.6 311.4,361.8 311.4,362.5 311.2,362.7 310.4,362.6 309.2,363.2 308.2,364.3 308,364.6 305.7,365.5 305.7,365.5 305.5,365.6 304.9,366.2 304.4,367.3 304,369 304,371 303.6,371.4 303.5,370.9 303.3,370.1 303.5,368.5 303.2,367.8 302.9,367.4 302.4,367.7 301.9,368.3 301,370.4 300.4,370.6 300.4,370.6 299.4,371.5 299.4,371.5 298.3,372 297.5,372.7 297.3,373.2 " />
		<polygon
   style="fill:#e70013;fill-opacity:1;stroke:none"
   id="polygon77"
   points="295.8,379 295.7,379.4 295.3,379.7 295.2,378.9 295.4,378.7 295.7,378.7 " />
		<polygon
   style="fill:#e70013;fill-opacity:1;stroke:none"
   id="polygon79"
   points="290.1,388.6 290.2,388.1 290.1,387.5 289.9,387.3 290,387.1 290.4,387.1 290.7,387.7 290.8,388.1 290.4,388.7 " />
		<polygon
   style="fill:#e70013;fill-opacity:1;stroke:none"
   id="polygon81"
   points="317.3,399.3 316.9,399.8 315.6,397.7 315.7,397.3 317.2,398.9 " />
	</g>
</g><g
     id="g3765"
     transform="matrix(4.5500001,0,0,4.5500001,139.12712,360.45651)"><g
       id="g4"
       style="fill:#e70013"><circle
         r="20"
         id="circle8"
         d="m 20,0 c 0,11.045695 -8.954305,20 -20,20 -11.045695,0 -20,-8.954305 -20,-20 0,-11.045695 8.954305,-20 20,-20 11.045695,0 20,8.954305 20,20 z"
         cx="0"
         cy="0"
         sodipodi:cx="0"
         sodipodi:cy="0"
         sodipodi:rx="20"
         sodipodi:ry="20"
         style="fill:#ffffff" /><circle
         r="15"
         id="circle10"
         d="M 15,0 C 15,8.2842712 8.2842712,15 0,15 -8.2842712,15 -15,8.2842712 -15,0 c 0,-8.2842712 6.7157288,-15 15,-15 8.2842712,0 15,6.7157288 15,15 z"
         cx="0"
         cy="0"
         sodipodi:cx="0"
         sodipodi:cy="0"
         sodipodi:rx="15"
         sodipodi:ry="15" /><circle
         cx="4"
         r="12"
         id="circle12"
         d="M 16,0 C 16,6.627417 10.627417,12 4,12 -2.627417,12 -8,6.627417 -8,0 c 0,-6.627417 5.372583,-12 12,-12 6.627417,0 12,5.372583 12,12 z"
         cy="0"
         sodipodi:cx="4"
         sodipodi:cy="0"
         sodipodi:rx="12"
         sodipodi:ry="12"
         style="fill:#ffffff" /><path
         transform="matrix(0,-9,9,0,4,0)"
         d="m 0,-1 0.58779,1.80902 -1.53885,-1.11804 1.90212,0 -1.53885,1.11804 z"
         id="path14"
         inkscape:connector-curvature="0" /></g></g></g></svg>